<?xml version="1.0" encoding="utf-8"?>
<!-- Generator: Adobe Illustrator 24.2.3, SVG Export Plug-In . SVG Version: 6.00 Build 0)  -->
<svg version="1.1" id="Layer_1" xmlns="http://www.w3.org/2000/svg" xmlns:xlink="http://www.w3.org/1999/xlink" x="0px" y="0px"
	 viewBox="0 0 926.6 786" style="enable-background:new 0 0 926.6 786;" xml:space="preserve">
<style type="text/css">
	.st0{fill:#3F3D56;}
	.st1{fill:#22C1D1;}
	.st2{fill:#FF6584;}
	.st3{fill:#F0F0F0;}
	.st4{fill:none;}
	.st5{fill:#E4E4E4;}
	.st6{opacity:0.3;fill:#F0F0F0;enable-background:new    ;}
	.st7{fill:#F2F2F2;}
	.st8{fill:#2F2E41;}
	.st9{opacity:0.1;enable-background:new    ;}
	.st10{fill:#FFB6B6;}
	.st11{fill:#23CE6B;}
	.st12{fill:#FF927D;}
	.st13{fill:#000313;}
	.st14{fill:#FFB298;}
	.st15{fill:#000C30;}
	.st16{fill:#D13D60;}
	.st17{fill:#F86363;}
	.st18{fill:none;stroke:#FFFFFF;stroke-width:1.4293;stroke-linecap:round;stroke-linejoin:round;stroke-miterlimit:10;}
</style>
<path class="st0" d="M894.2,329.1c-46.3,59.3-133.8,72.8-206.1,52.2c-23.7-6.9-46.5-16.4-68.1-28.4c-12.5-6.8-24.8-14.3-36.8-22.2
	c-3-2-5.9-3.9-8.8-6c-2-1.4-4-2.7-6-4.1c-24.8-17.4-48.5-36.5-71.9-55.5c-58.4-47.4-118.4-96.3-190.1-118.9
	c-14.8-4.7-33.9-6.8-43,5.7c-7.9,10.9-3.1,26.3,3.6,37.9c24.9,43.2,70.1,70.5,115.3,91.4c45.2,21,93.1,38,132.4,68.6
	C554,380.4,584,429.1,576,478.3c-6.9,42.4-41.5,76.8-81.8,91.8c-40.2,15-85.1,12.9-126.9,3.2c-41.8-9.8-81.5-26.8-121.9-41.4
	c-24.3-8.8-56.2-15-72.3,5.3c-13.6,17.1-5.8,44.1,10.8,58.3s39.1,19,60.5,23.3c66.6,13.3,133.2,26.6,199.8,39.9
	c20.4,4.1,41.3,8.3,59.1,19.2c17.8,10.8,32.2,29.8,31.7,50.6c-0.5,20.5-15.5,38.7-34,47.8c-18.4,9.1-39.7,10.5-60.2,9.5
	C363.9,782,143.6,659.9,90.7,644.3c-34-10-71.1-24.7-85.4-57.1c-17.8-40.3,11.5-89.1,51.6-107.5c40-18.4,86.5-14.3,130.1-8.1
	c43.6,6.2,88.7,14.1,131.2,2.3c42.5-11.8,81.4-50.2,77.2-94.1c-3.7-38.2-38-67-74.2-79.6c-28.3-9.9-58.5-12.6-88.2-17.1
	c-8.3-1.2-16.5-2.6-24.6-4.3c-20.9-4.4-41.2-10.9-60.8-19.5c-20.5-9-39.9-20.2-58-33.3c-14.4-10.5-27.9-22.2-40.3-35
	c-1.9-2-3.8-4-5.6-6c-1.8-2-3.5-4-5.2-6C16.3,152.5-0.1,120,4.8,86.4c4.9-33.4,31-61.3,62-74.7C84.8,4,104.1,0.6,123.7,0.1
	c14.3-0.3,28.6,0.7,42.8,3.1c65.4,10.5,125.4,42.2,182,76.6c56.6,34.4,111.8,72.2,173.3,96.7c61.5,24.5,131.6,34.9,194,12.7
	c62.4-22.2,113.7-82.7,110.6-148.9c41.4,35.7,76.6,80.5,92.2,132.8C934.1,225.6,927.9,286,894.2,329.1z"/>
<circle class="st1" cx="595.9" cy="253.4" r="7.3"/>
<circle class="st2" cx="852.9" cy="157.4" r="11.3"/>
<circle class="st2" cx="114.9" cy="511.4" r="4.2"/>
<path class="st2" d="M234.2,272.4c0,3.6-0.4,7.2-1.3,10.7c-8.3-1.2-16.5-2.6-24.6-4.3c-20.9-4.4-41.2-10.9-60.8-19.5
	c7.2-23.4,32.1-36.5,55.5-29.2C221.6,235.8,234.2,253,234.2,272.4z"/>
<circle class="st3" cx="780.9" cy="230.4" r="4.3"/>
<circle class="st3" cx="391.9" cy="698.4" r="4.3"/>
<circle class="st3" cx="452.9" cy="757.4" r="4.3"/>
<circle class="st3" cx="75.9" cy="589.4" r="4.3"/>
<circle class="st3" cx="284.9" cy="510.4" r="4.3"/>
<circle class="st3" cx="263.9" cy="88.4" r="4.3"/>
<circle class="st3" cx="520.9" cy="421.4" r="4.3"/>
<circle class="st3" cx="552.9" cy="495.4" r="4.3"/>
<path class="st4" d="M154.8,163.7c6-1.8,11.8-3.8,17.4-5.9c34-13.1,53.4-30.9,53.4-48.8s-19.5-35.7-53.4-48.8
	c-3.4-1.3-6.8-2.5-10.4-3.7C174.3,91.6,171.8,130.4,154.8,163.7L154.8,163.7z"/>
<path class="st2" d="M169.6,102c0,21.5-5,42.6-14.8,61.8c-1.3,2.5-2.7,5-4.1,7.4c-14.3,24.1-35.7,43.3-61.2,54.8
	c-14.4-10.5-27.9-22.2-40.3-35c-1.9-2-3.8-4-5.6-6c-1.8-2-3.5-4-5.2-6C16.3,152.5-0.1,120,4.8,86.4c4.9-33.4,31-61.3,62-74.7
	C84.8,4,104.1,0.6,123.7,0.1C139,13.6,151.1,30.4,159,49.2c1,2.4,1.9,4.8,2.8,7.2C167,71,169.7,86.5,169.6,102z"/>
<path class="st5" d="M231.6,109c0,20.8-20.3,40.2-57.3,54.4c-7.4,2.9-15.3,5.4-23.6,7.8c-31.1,8.7-68.2,13.5-107.2,13.8
	c-1.8-2-3.5-4-5.2-6c0.4,0,0.8,0,1.3,0c42.3,0,82.5-5.4,115.2-15.2c6-1.8,11.9-3.8,17.4-5.9c34-13.1,53.4-30.9,53.4-48.8
	s-19.5-35.7-53.4-48.8c-3.4-1.3-6.8-2.5-10.4-3.7c-0.9-2.4-1.8-4.8-2.8-7.2c5.3,1.7,10.4,3.4,15.3,5.3
	C211.3,68.8,231.6,88.1,231.6,109z"/>
<circle class="st3" cx="45.9" cy="30.4" r="4.3"/>
<circle class="st3" cx="134.9" cy="57.4" r="4.3"/>
<circle class="st3" cx="88.9" cy="100.4" r="41.3"/>
<path class="st6" d="M852.5,319.2c-9.3,2.7-29.7,4.8-52.2,6c-22.5,1.2-47.2,1.8-71.5,2.3c-42.6,0.9-85.3,1.8-127.9,2.8
	c-5.9,0.1-11.7,0.3-17.6,0.4c-3-2-5.9-3.9-8.8-6c5.2,0,10.5,0,15.6-0.1c22.2-0.4,40.9-2.2,62.3-3c32.9-1.3,68.4-0.3,102.7,0.2
	C789.4,322.4,828.4,322.2,852.5,319.2z"/>
<path class="st6" d="M198.1,634.5L62.2,521.2l132,117.8c0.9,1.5,2.8,2,4.3,1.1c1.5-0.9,2-2.8,1.1-4.3
	C199.3,635.2,198.7,634.7,198.1,634.5L198.1,634.5z"/>
<circle class="st3" cx="94.9" cy="201.4" r="4.3"/>
<circle class="st7" cx="405.5" cy="274.3" r="6.2"/>
<path class="st8" d="M644.1,670.4"/>
<polygon class="st9" points="452.9,269.4 458.7,273.8 461.6,253.4 "/>
<circle class="st10" cx="393.3" cy="308" r="17"/>
<polygon class="st9" points="331.3,252 332.6,270 374.9,292.2 337.3,267 "/>
<path class="st11" d="M472.5,229.4c0,0,4.4,2.9,7.3,16s21.8,62.6,14.6,74.2s-9.4,24.1-34.2,6.6l-34.2-31.4l24.7-23.3l10.2,7.3
	L472.5,229.4z"/>
<circle class="st11" cx="408.1" cy="260.3" r="7.3"/>
<circle class="st10" cx="429.2" cy="276.2" r="17"/>
<polygon class="st9" points="330.5,306.4 379.3,328 329.2,318.2 "/>
<g>
	<g>
		<g>
			<g>
				<g>
					<path class="st12" d="M502.3,569.2c0,0-10.2,124-13.8,127.2c-3.6,3.2-41.8,18.7-11.9-6.2c0,0-14.9-109-11.1-126.7
						C469.2,545.8,502.3,569.2,502.3,569.2z"/>
					<path class="st13" d="M490.4,689.9l-0.9,6.7c0,0-58.2,28.3-14.1-5.5C475.4,691.2,466.6,700.4,490.4,689.9z"/>
				</g>
				<g>
					<g>
						<path class="st14" d="M503.2,574.9c0,0-4.5,124.4-7.9,127.8c-3.4,3.4-40.9,20.8-12.2-5.6c0,0-19.9-108.1-16.9-126
							C469.2,553.2,503.2,574.9,503.2,574.9z"/>
						<path class="st12" d="M498.1,679.3c2.7-36.9,5.1-104.4,5.1-104.4s-34.1-21.7-37-3.8c-2.1,12.9,7.5,72.2,13.1,104.7
							C485.6,676.4,491.9,677.8,498.1,679.3z"/>
					</g>
					<path class="st15" d="M496.9,696.1l-0.6,6.7c0,0-56.9,31.2-14.3-4.8C482,698.1,473.7,707.8,496.9,696.1z"/>
				</g>
			</g>
			<g>
				<path class="st15" d="M434.6,317.6c0,0-48.1,64.4-37.2,121.8c10.9,57.5,58,112.6,58,112.6l13.8,120.4l34.3-2
					c0,0,15.3-75.9,0-133.3c0,0,23-88.5,23-134.5c0-46-39.4-89.6-39.4-89.6L434.6,317.6z"/>
				<g>
					<path class="st13" d="M441.4,348.5c17.9,0.9,40.6,0.7,56.5-9.3c1.9-1.2,3.7-2.5,5.5-3.9c-8.6-13.6-16.4-22.2-16.4-22.2
						l-52.5,4.6c0,0-8.2,11-17.1,28C425.4,347.1,433.4,348.1,441.4,348.5z"/>
					<g>
						<path class="st13" d="M458.6,570.5c-4.4-49.4-5.5-140.2-5.5-140.2c-30.1-9.6-44.9-29.9-52-44.6c-4.9,17.2-7.3,35.8-3.8,53.8
							c10.9,57.5,58,112.6,58,112.6l4,25.7C459.1,575.3,458.9,572.8,458.6,570.5z"/>
						<path class="st13" d="M473.4,668.3l0.5,3.3l0.1,0C473.9,670.5,473.7,669.4,473.4,668.3z"/>
					</g>
				</g>
			</g>
		</g>
		<g>
			<g>
				<g>
					<path class="st2" d="M447,237.1c0,0-23.7-8.9-32.4,8.1c-8.7,17-32.4,69.4-32.4,69.4l19.2,14.5L447,237.1z"/>
					<path class="st16" d="M412.6,249.4c-9.9,20.1-30.4,65.3-30.4,65.3l19.2,14.5l27.9-56.4C423.5,265.2,418,257.3,412.6,249.4z"/>
				</g>
				<g>
					<path class="st12" d="M454.4,220.1l0.7,28.3c0,0,26.2-3.2,26.2-4.3s1-37.9,1-37.9L454.4,220.1z"/>
					<g>
						<path class="st2" d="M447,237.1l-0.6-9.7l39-2.7l-1,11.4c0,0,19.8-3.9,30.8,4c11,7.9-6.4,87.9-6.4,87.9s-38.5,9.5-80.8-3.4
							c0,0-14.3-32.7-11.3-46.4c3-13.7,14-41.9,14-41.9L447,237.1z"/>
						<path class="st16" d="M480.2,293.3c-19.3,9-40.1,12.3-60.3,9.1c3.4,11.7,8.1,22.3,8.1,22.3c42.4,12.8,80.8,3.4,80.8,3.4
							s11.4-52.6,9.9-76.7C514,270.2,496.2,285.9,480.2,293.3z"/>
					</g>
				</g>
			</g>
			<g>
				<g>
					<path class="st14" d="M429.4,322.5c0,0-15.6-6.9-20.4-6.6c-4.8,0.3-13.2,3.8-13.2,3.8l-8.7,12.9l39.9,2.5L429.4,322.5z"/>
					<path class="st2" d="M508.1,237.2c0,0,18.2,0.9,7.7,41.2c-5.8,22.2-12.1,69.9-25.5,73.5c-13.5,3.6-70.6-16.5-70.6-16.5
						l4.6-18.9l50.7,2.8C475,319.4,480.4,234.8,508.1,237.2z"/>
				</g>
				<g>
					<g>
						<polygon points="459.1,344.6 331.2,335.6 318.6,255.2 409.1,257.5 415.8,334.2 458.6,338.4 						"/>
						<polygon points="410.7,341.2 459.1,344.6 458.6,338.4 415.8,334.2 409.1,257.5 403.8,257.4 						"/>
					</g>
					<path class="st14" d="M357.8,342.9c0,0-14.4,1.7-15.8-6.9c-1.1-6.8-4.1-26.5,2.7-1.4c0,0,1.4-36.9,5,0.5c0,0,9-34.5,5,0.5
						c0,0,9.5-29.8,4.5,0.9l12.6,1.9C371.7,338.4,373.5,342.5,357.8,342.9z"/>
				</g>
			</g>
		</g>
		<g>
			<g>
				<g>
					<path d="M470.3,130.8c0,0-39.3-9.7-52.3,15.3c-13,25-10.8,62.9,3.4,78.7v-7.1c0,0,3.4,8.5,14.6,7.8c11.2-0.7,26.5-5,26.5-5
						L470.3,130.8z"/>
					<path class="st14" d="M453.9,145.6c0,0-30-1-29.5,34.5c0.5,35.5,21.2,45,28.4,44.7c7.2-0.3,36.9-1.4,40.4-42.4
						C497.1,137.9,453.9,145.6,453.9,145.6z"/>
				</g>
				<g>
					<path d="M446.9,138.3c0,0-5,52.5,31,93.5l3.4-12l0.4,6.6c0,0,20.6-8,26-18.9c5.4-10.8-8.4-67-17.5-76.4
						C480.4,121.1,447.6,123.5,446.9,138.3z"/>
					<path d="M462.7,126c0,0-35.1,4.7-37.4,24.1c-2.3,19.4,15.8,28.9,15.8,28.9s-5.4-9.5-4.5-18c0,0,1.4,21.3,19.4,20.8
						c15.9-0.4,9.5-48.7,9.5-48.7L462.7,126z"/>
				</g>
			</g>
			<g>
				<g>
					<path class="st17" d="M437.6,192.6c0.3,0.9,0.3,1.8,0.2,2.7c-0.1,0.9-0.3,1.8-0.7,2.6c-0.4,0.8-0.8,1.6-1.4,2.3
						c-0.5,0.7-1.2,1.4-1.9,2l-0.1-1c1.7,0.9,3.4,1.9,4.9,3.1c-1.9-0.5-3.7-1.3-5.5-2l-0.7-0.3l0.6-0.6c0.3-0.3,0.6-0.6,0.9-0.9
						c0.3-0.3,0.6-0.6,0.8-1c0.5-0.6,1-1.4,1.4-2.1C436.9,196,437.4,194.4,437.6,192.6z"/>
				</g>
				<g>
					<path class="st17" d="M437.1,209.6c1.7,0.5,3.4,0.9,5.1,1c1.7,0.1,3.4,0,5-0.4c1.6-0.4,3.2-1.1,4.6-2.1
						c1.4-0.9,2.7-2.1,3.9-3.4c-0.8,1.6-2,3-3.4,4.1c-1.4,1.2-3.1,2-4.8,2.5c-1.8,0.5-3.6,0.5-5.4,0.2
						C440.3,211.2,438.6,210.5,437.1,209.6z"/>
				</g>
				<g>
					<path class="st13" d="M440,184c0.2-1.5,1.1-3,2.4-4c1.3-1,3-1.4,4.6-1.4c0.8,0,1.6,0.2,2.4,0.3c0.7,0.3,1.5,0.5,2.2,0.8
						c0.7,0.4,1.4,0.7,2.1,1.1c0.6,0.4,1.3,0.9,1.9,1.3c-0.7-0.2-1.4-0.5-2.1-0.8c-0.7-0.3-1.4-0.5-2.1-0.7
						c-0.7-0.2-1.4-0.4-2.1-0.6c-0.7-0.1-1.4-0.3-2.1-0.2c-1.4-0.1-2.8,0.2-4,0.9C441.8,181.5,440.7,182.6,440,184z"/>
				</g>
				<g>
					<path class="st13" d="M433.7,185c-1.1-0.5-2.1-0.9-3.2-1.3c-1.1-0.3-2.1-0.6-3.1-0.6c-1,0-1.9,0.3-2.6,1.1
						c-0.7,0.8-1.2,1.8-1.6,2.9c-0.1-1.2,0.1-2.4,0.8-3.5c0.3-0.6,0.9-1,1.5-1.3c0.6-0.3,1.3-0.4,1.9-0.4c1.3,0,2.5,0.4,3.5,1
						C431.9,183.4,432.9,184.1,433.7,185z"/>
				</g>
				<g>
					<path class="st13" d="M444.1,189.2c0.5,1.1,1.1,2.2,1.9,3.1c0.7,0.9,1.7,1.5,2.7,1.5c1.1,0,2-0.6,2.4-1.7
						c0.5-1,0.6-2.3,0.7-3.5c0.4,1.2,0.5,2.5,0.2,3.9c-0.2,0.7-0.6,1.3-1.2,1.8c-0.6,0.5-1.3,0.7-2,0.7c-0.7,0-1.5-0.2-2.1-0.6
						c-0.6-0.4-1.1-0.9-1.4-1.5C444.5,191.7,444.2,190.5,444.1,189.2z"/>
				</g>
				<g>
					<path class="st13" d="M427.8,191.9c0.5,1.1,1,2.2,1.7,3.1c0.7,0.9,1.5,1.6,2.5,1.5c1,0,1.7-0.8,2.1-1.8c0.4-1,0.5-2.2,0.6-3.4
						c0.4,1.2,0.5,2.4,0.2,3.7c-0.1,0.6-0.4,1.3-0.9,1.8c-0.5,0.5-1.2,0.8-1.9,0.9c-0.7,0.1-1.5-0.2-2-0.6c-0.5-0.4-0.9-1-1.2-1.5
						C428.2,194.3,427.9,193.1,427.8,191.9z"/>
				</g>
			</g>
		</g>
	</g>
	<g>
		<g>
			<g>
				<ellipse class="st2" cx="307.6" cy="141.9" rx="40.3" ry="35.3"/>
				<path class="st2" d="M352.1,181.5c3.1,5.4,0.6,12.1-5.6,14.8l-12.4,5.4c-6.2,2.7-13.8,0.5-16.9-4.9l-24.9-43.3
					c-3.1-5.4-0.6-12.1,5.6-14.8l12.4-5.4c6.2-2.7,13.8-0.5,16.9,4.9L352.1,181.5z"/>
			</g>
			<path class="st18" d="M317.2,185.8L296,148.8c0,0,6.5,7.6,9.9,1.2c3.4-6.4-2.3-11.3,7-4.9c9.3,6.4,7.6-7.7,7.6-7.7l20.6,35.9"/>
		</g>
		<g>
			<path class="st15" d="M311.1,187.9l9.9,17.3c3.3,5.7,11.2,8,17.7,5.1l13-5.7c6.5-2.9,9.1-9.8,5.9-15.5l-9.9-17.3L311.1,187.9z"/>
			<g>
				<path d="M351.4,169.8c1.3,2.3,0.3,5.1-2.4,6.3l-34.9,15.3c-2.6,1.2-5.9,0.2-7.2-2.1l0,0c-1.3-2.3-0.3-5.1,2.4-6.3l34.9-15.3
					C346.9,166.6,350.1,167.5,351.4,169.8L351.4,169.8z"/>
				<path d="M358.2,181.6c1.3,2.3,0.3,5.1-2.4,6.3l-34.9,15.3c-2.6,1.2-5.9,0.2-7.2-2.1l0,0c-1.3-2.3-0.3-5.1,2.4-6.3l34.9-15.3
					C353.7,178.4,356.9,179.3,358.2,181.6L358.2,181.6z"/>
			</g>
		</g>
	</g>
</g>
<circle class="st1" cx="300.4" cy="677" r="7.3"/>
</svg>
